<svg width="124" height="124" viewBox="0 0 124 124" fill="none" xmlns="http://www.w3.org/2000/svg">
<g clip-path="url(#clip0_826_204)">
<path d="M40.4937 35.6288L41.9746 34.8476L36.1109 23.7281L34.6299 24.5092L34.5098 24.283L43.4839 19.5538L45.138 22.6925L44.9578 22.7879C44.4806 22.2224 44.0741 21.823 43.7454 21.5897C43.4132 21.3564 43.0774 21.1868 42.731 21.0843C42.3882 20.9818 42.0277 20.9606 41.6565 21.0171C41.2854 21.0737 40.8754 21.2186 40.4336 21.4554L37.7332 22.8763L40.3806 27.8988L41.4374 27.3404C41.7944 27.153 42.0807 26.9586 42.2963 26.7642C42.5119 26.5698 42.6603 26.333 42.7452 26.0609C42.83 25.7887 42.8512 25.4635 42.8159 25.0889C42.777 24.7142 42.6321 24.1416 42.3811 23.3746L42.5614 23.2792L45.5692 28.9874L45.389 29.0829C45.1486 28.8072 44.88 28.4926 44.5866 28.1321C44.2933 27.7751 44.014 27.5206 43.749 27.3686C43.4839 27.2202 43.1905 27.1389 42.8759 27.1318C42.5614 27.1248 42.2079 27.2237 41.8191 27.4287L40.5007 28.1215L43.5934 33.9923L46.6685 32.3735C47.2658 32.0589 47.6935 31.6701 47.955 31.2071C48.2166 30.7441 48.3792 30.2705 48.4428 29.7862C48.5064 29.302 48.4711 28.786 48.3332 28.2346C48.1954 27.6832 48.0787 27.2767 47.9798 27.0081L48.16 26.9127L50.2065 30.8006L40.6139 35.855L40.4937 35.6288Z" fill="#FEFFFE"/>
<path d="M48.4639 23.2296L52.829 22.3707L52.8785 22.6216L51.401 22.915L54.8436 28.1142L56.1443 21.9748L54.6669 22.2682L54.6174 22.0172L57.3567 21.4764L57.4062 21.7274L56.4306 21.9182L54.6174 30.6697L49.7434 23.2402L48.5169 23.4805L48.4639 23.2296Z" fill="#FEFFFE"/>
<path d="M60.7032 24.8058C60.6997 24.9295 60.6891 25.0532 60.6785 25.1804C60.6679 25.3077 60.6573 25.4703 60.6502 25.6682C60.6361 26.0711 60.6431 26.4953 60.6749 26.9371C60.7067 27.3789 60.7986 27.7818 60.9506 28.1423C61.1026 28.5029 61.3359 28.8068 61.654 29.0507C61.9686 29.2946 62.3962 29.4289 62.937 29.4466C63.4778 29.4678 63.9231 29.4042 64.2766 29.2557C64.63 29.1108 64.9128 28.927 65.1249 28.7079C65.3369 28.4887 65.4925 28.2661 65.602 28.0363C65.7081 27.8066 65.7894 27.6192 65.8424 27.4743L66.1145 27.5415C66.0721 27.6758 65.9944 27.8667 65.8813 28.1105C65.7682 28.358 65.595 28.6018 65.3582 28.8457C65.1213 29.0896 64.8068 29.2981 64.4144 29.4713C64.0221 29.648 63.5202 29.7223 62.9087 29.7011C62.2973 29.6799 61.7353 29.5597 61.2192 29.3441C60.7067 29.1285 60.2649 28.8316 59.9009 28.4498C59.5333 28.0681 59.2576 27.6192 59.0667 27.1032C58.8759 26.5872 58.7946 26.0181 58.8158 25.3925C58.837 24.8553 58.9607 24.3357 59.194 23.8338C59.4273 23.3319 59.7383 22.8936 60.1271 22.5154C60.5159 22.1372 60.9648 21.8403 61.4737 21.6176C61.9862 21.3985 62.527 21.2995 63.1031 21.3208C63.446 21.3349 63.81 21.4091 64.1988 21.5434C64.5841 21.6813 64.9411 21.8933 65.2698 22.1796C65.595 22.4695 65.8636 22.8441 66.0757 23.3036C66.2842 23.7666 66.3796 24.3322 66.3513 25.0072L60.7032 24.8058ZM64.4957 24.6891C64.5275 24.5195 64.5452 24.3604 64.5487 24.212C64.5558 24.0635 64.5594 23.9115 64.5664 23.7525C64.5806 23.3354 64.5558 22.9926 64.4851 22.7204C64.4144 22.4483 64.3119 22.2291 64.1776 22.0665C64.0433 21.9039 63.8737 21.7838 63.6757 21.706C63.4778 21.6318 63.2587 21.5894 63.0289 21.5788C62.6118 21.5646 62.2655 21.6318 61.9898 21.7873C61.7141 21.9428 61.4914 22.1584 61.3217 22.4341C61.1521 22.7098 61.0213 23.0315 60.9259 23.3955C60.834 23.7596 60.7668 24.1448 60.728 24.5478L64.4957 24.6891Z" fill="#FEFFFE"/>
<path d="M66.6596 29.4363L68.0309 29.7933L69.8901 22.6606L68.5222 22.3037L68.5859 22.0562L71.4488 22.802L70.9823 24.5975L71.0176 24.6082C71.1095 24.442 71.2403 24.2618 71.4064 24.0638C71.5725 23.8659 71.7775 23.6892 72.0214 23.5301C72.2653 23.3711 72.5374 23.258 72.8414 23.1837C73.1454 23.1095 73.4882 23.1237 73.8664 23.2226C74.1386 23.2933 74.3648 23.3993 74.5415 23.5407C74.7182 23.6821 74.8561 23.8376 74.9515 24.0073C75.0469 24.1769 75.1 24.3607 75.1141 24.5516C75.1282 24.746 75.1106 24.9298 75.0646 25.1101C74.9621 25.5024 74.8066 25.7392 74.5945 25.824C74.3825 25.9089 74.1598 25.9195 73.9194 25.8558C73.3963 25.7215 73.1807 25.4847 73.2655 25.1525C73.2938 25.0464 73.3256 24.9616 73.368 24.905C73.4069 24.845 73.4529 24.7884 73.4988 24.7319C73.5448 24.6753 73.5907 24.6082 73.6367 24.5304C73.6826 24.4526 73.725 24.3395 73.7639 24.184C73.8629 23.8058 73.7038 23.5619 73.2903 23.4524C73.0994 23.4029 72.8803 23.4206 72.6293 23.5089C72.3784 23.5973 72.1274 23.7528 71.8694 23.9755C71.6149 24.2017 71.3746 24.488 71.1484 24.8414C70.9222 25.1949 70.7454 25.619 70.6147 26.1174L69.5508 30.1891L71.0989 30.5921L71.0353 30.843L66.5889 29.6837L66.6596 29.4363Z" fill="#FEFFFE"/>
<path d="M76.0288 23.9857L80.044 26.0251L79.9274 26.2549L78.5524 25.555L78.0505 31.7722L82.8787 27.75L81.5179 27.0572L81.6345 26.8274L84.1405 28.0999L84.0239 28.3296L83.1402 27.8807L77.2235 32.8326C76.7781 33.1966 76.3398 33.5677 75.9122 33.9495C75.4845 34.3312 75.0568 34.7129 74.6256 35.0982C74.2722 35.4128 73.9435 35.6814 73.643 35.897C73.3391 36.1126 73.0563 36.2716 72.7947 36.3741C72.5296 36.4731 72.2787 36.5191 72.0348 36.512C71.7909 36.5049 71.5365 36.4342 71.2749 36.2999C70.9568 36.1373 70.7306 35.9606 70.5892 35.7662C70.4478 35.5718 70.3559 35.3809 70.3135 35.1936C70.2711 35.0063 70.2711 34.8331 70.31 34.674C70.3489 34.515 70.3948 34.3878 70.4443 34.2888C70.5821 34.0166 70.7624 33.8505 70.9851 33.7904C71.2077 33.7303 71.4269 33.7586 71.646 33.8682C71.7238 33.9071 71.8015 33.9565 71.8793 34.0166C71.9571 34.0767 72.0242 34.1509 72.0808 34.2322C72.1338 34.3135 72.1691 34.409 72.1868 34.5115C72.2009 34.614 72.1833 34.7235 72.1267 34.8331C72.049 34.9851 71.9288 35.1088 71.7662 35.1972C71.6036 35.2855 71.4799 35.4128 71.3986 35.5753C71.3279 35.7167 71.3173 35.8298 71.3703 35.9111C71.4233 35.9924 71.5188 36.0666 71.6496 36.1338C71.8228 36.2222 72.0065 36.2646 72.1939 36.2575C72.3847 36.2504 72.5968 36.1903 72.8336 36.0772C73.0704 35.9641 73.3355 35.7945 73.6289 35.5647C73.9222 35.335 74.2686 35.0487 74.6645 34.6988L76.3186 33.2284L77.0467 24.7739L75.9157 24.1978L76.0288 23.9857Z" fill="#FEFFFE"/>
<path d="M84.7485 28.7156L85.8619 29.5922L87.3287 27.7295C87.3817 27.8179 87.4348 27.8991 87.4878 27.9734C87.5408 28.0441 87.6468 28.1466 87.8129 28.2738C87.9579 28.3869 88.0957 28.4682 88.2265 28.5177C88.3573 28.5672 88.5022 28.5919 88.6612 28.5919L87.1025 30.5677L89.1525 32.183L88.9935 32.3844L86.9435 30.7692L83.2216 35.4913C83.0096 35.7599 82.8611 36.0002 82.7833 36.2123C82.7021 36.4208 82.6702 36.6082 82.6844 36.7672C82.6985 36.9263 82.7445 37.0606 82.8222 37.1701C82.9 37.2797 82.9883 37.3716 83.0838 37.4458C83.4196 37.7109 83.7907 37.8028 84.1901 37.7215C84.5895 37.6402 84.9429 37.4635 85.254 37.1914L85.3989 37.4211C85.2716 37.5236 85.1197 37.6296 84.9394 37.7392C84.7591 37.8488 84.5541 37.923 84.3244 37.969C84.0946 38.0149 83.8472 38.0078 83.5821 37.9442C83.3171 37.8841 83.0414 37.7392 82.7515 37.513C82.0305 36.9439 81.6382 36.4067 81.5745 35.9048C81.5109 35.4029 81.6806 34.8939 82.08 34.385L85.6993 29.7936L84.5859 28.9171L84.7485 28.7156Z" fill="#FEFFFE"/>
<path d="M84.445 37.8342L85.3322 38.937L95.2606 30.9596L94.3734 29.8569L94.5749 29.6943L96.4517 32.0306L90.8212 36.5548L90.846 36.583C91.0086 36.53 91.2277 36.4876 91.5069 36.4523C91.7862 36.4169 92.0866 36.431 92.4118 36.4911C92.7369 36.5512 93.0727 36.6749 93.4191 36.8623C93.7655 37.046 94.0942 37.3359 94.4088 37.7282C94.9142 38.3573 95.1758 38.9936 95.1899 39.6368C95.204 40.2766 94.8753 40.8669 94.2073 41.4041L90.0224 44.7654L90.9096 45.8682L90.7081 46.0308L87.9442 42.5917L88.1456 42.4291L89.0328 43.5319L93.6595 39.8136C94.0306 39.5131 94.2674 39.1809 94.3628 38.8133C94.4583 38.4457 94.3593 38.0746 94.0589 37.6999C93.8114 37.396 93.511 37.1556 93.1576 36.986C92.8006 36.8163 92.4188 36.7209 92.0124 36.7032C91.6059 36.6855 91.1888 36.7456 90.7682 36.887C90.3476 37.0284 89.9447 37.2546 89.563 37.5586L86.3254 40.1599L87.2125 41.2627L87.011 41.4253L84.2471 37.9862L84.445 37.8342Z" fill="#FEFFFE"/>
<path d="M90.694 46.1332L91.3196 47.4021L97.9327 44.1468L97.307 42.8779L97.5368 42.7648L98.8622 45.451L92.0194 48.8194L92.645 50.0883L92.4153 50.2014L90.4678 46.2428L90.694 46.1332ZM101.905 41.9448C102.146 41.8246 102.393 41.8105 102.651 41.8953C102.906 41.9802 103.093 42.1463 103.21 42.3866C103.33 42.6305 103.344 42.8779 103.259 43.1324C103.174 43.3869 103.008 43.5742 102.768 43.6909C102.528 43.811 102.277 43.8252 102.022 43.7403C101.768 43.6555 101.58 43.4894 101.464 43.249C101.347 43.0087 101.329 42.7577 101.414 42.5068C101.499 42.2488 101.665 42.0615 101.905 41.9448Z" fill="#FEFFFE"/>
<path d="M92.9841 50.0778L93.3164 51.4527L100.481 49.7208L100.149 48.3459L100.4 48.2858L101.096 51.1629L99.1836 51.6259L99.1907 51.6613C99.3639 51.6966 99.583 51.7532 99.8552 51.8309C100.127 51.9087 100.403 52.043 100.689 52.2268C100.972 52.4106 101.237 52.6615 101.485 52.9796C101.732 53.2977 101.916 53.7148 102.04 54.2238C102.23 55.0084 102.195 55.6977 101.933 56.2809C101.672 56.864 101.124 57.2599 100.29 57.4614L95.073 58.7232L95.4052 60.0981L95.1543 60.1582L94.1187 55.8708L94.3696 55.8108L94.7019 57.1857L100.474 55.7896C100.937 55.6765 101.294 55.475 101.538 55.1816C101.781 54.8883 101.849 54.5101 101.736 54.047C101.644 53.6653 101.47 53.3225 101.223 53.0185C100.972 52.7145 100.668 52.4671 100.308 52.2763C99.9471 52.0854 99.5442 51.9652 99.1059 51.9157C98.6641 51.8627 98.2046 51.8981 97.731 52.0112L93.6945 52.9867L94.0268 54.3616L93.7758 54.4217L92.7402 50.1343L92.9841 50.0778Z" fill="#FEFFFE"/>
<path d="M96.2038 60.409C96.5361 60.4196 96.8153 60.4938 97.0521 60.6246C97.2854 60.7589 97.4904 60.9144 97.66 61.1017C97.8297 61.2891 97.9676 61.4835 98.0701 61.692C98.1726 61.9005 98.2574 62.0843 98.3245 62.2469C98.8406 61.5436 99.5157 61.2113 100.346 61.2396C100.774 61.2537 101.156 61.3739 101.491 61.593C101.827 61.8122 102.106 62.0879 102.336 62.413C102.562 62.7382 102.732 63.0987 102.838 63.4875C102.944 63.8763 102.994 64.251 102.979 64.6044C102.958 65.1558 102.831 65.6224 102.598 66.0147C102.364 66.407 102.149 66.6863 101.958 66.863C102.184 67.0079 102.393 67.2129 102.58 67.4851C102.767 67.7572 102.852 68.0895 102.838 68.4818C102.827 68.7257 102.767 68.9519 102.658 69.1569C102.545 69.3619 102.319 69.4573 101.976 69.4467C101.757 69.4396 101.594 69.3619 101.488 69.2134C101.382 69.0685 101.332 68.9201 101.339 68.7716C101.347 68.5984 101.4 68.4747 101.502 68.404C101.605 68.3333 101.711 68.2733 101.82 68.2202C101.93 68.1672 102.039 68.1142 102.138 68.0541C102.237 67.994 102.29 67.9057 102.297 67.782C102.301 67.6583 102.255 67.531 102.156 67.4002C102.057 67.2659 101.94 67.1493 101.81 67.0468C101.682 67.1528 101.47 67.2871 101.17 67.4462C100.869 67.6052 100.498 67.6795 100.056 67.6618C99.6889 67.6477 99.3566 67.5452 99.0562 67.3508C98.7557 67.1564 98.4977 66.9054 98.2751 66.5979C98.0524 66.2904 97.8863 65.937 97.7732 65.534C97.6601 65.1311 97.6106 64.7246 97.6247 64.3111C97.6388 63.8834 97.7131 63.5123 97.8403 63.2012C97.9675 62.8902 98.0771 62.6463 98.169 62.4802C98.1125 62.3424 98.0524 62.1974 97.9817 62.0419C97.911 61.8864 97.8262 61.7415 97.7201 61.6107C97.6141 61.4799 97.4869 61.3668 97.3384 61.2749C97.1864 61.183 97.0132 61.1336 96.8188 61.1265C96.635 61.1194 96.4795 61.1512 96.3558 61.2184C96.2321 61.2891 96.1367 61.3774 96.0695 61.4941C96.0024 61.6072 95.9564 61.738 95.9246 61.8829C95.8963 62.0278 95.8787 62.1798 95.8716 62.3388L95.7656 65.2336C95.7337 66.0889 95.504 66.7605 95.0763 67.2518C94.6487 67.7431 93.9912 67.9728 93.1111 67.941C92.5739 67.9198 92.0861 67.7855 91.6549 67.5381C91.2237 67.2907 90.8526 66.9655 90.5416 66.5696C90.2305 66.1738 89.9972 65.7213 89.8382 65.2124C89.6791 64.7034 89.6084 64.1874 89.6297 63.6643C89.6473 63.1871 89.718 62.7524 89.8417 62.36C89.9654 61.9677 90.128 61.6284 90.3295 61.3421C90.5309 61.0558 90.7678 60.8367 91.0435 60.6811C91.3191 60.5256 91.6231 60.4549 91.9518 60.4655C92.2699 60.4761 92.5598 60.5539 92.8178 60.6917C93.0758 60.8296 93.302 61.0028 93.4964 61.2149C93.6908 61.4269 93.8569 61.6602 93.9948 61.9218C94.1326 62.1833 94.2457 62.4449 94.3341 62.7064L94.373 62.7064C94.4012 61.897 94.5568 61.3068 94.8324 60.9286C95.1081 60.561 95.5641 60.3842 96.2038 60.409ZM94.3553 63.0952C94.2634 62.9326 94.168 62.7665 94.069 62.6004C93.97 62.4307 93.8463 62.2787 93.6908 62.148C93.5353 62.0137 93.355 61.9041 93.143 61.8157C92.9309 61.7274 92.6658 61.6779 92.3477 61.6673C91.9059 61.6531 91.5383 61.7132 91.2449 61.8546C90.9516 61.996 90.7112 62.1833 90.5239 62.4131C90.3366 62.6428 90.2022 62.9043 90.1174 63.1942C90.0326 63.484 89.9866 63.7703 89.976 64.0495C89.9584 64.4878 90.0114 64.8907 90.1351 65.2548C90.2553 65.6188 90.4249 65.937 90.6441 66.2091C90.8597 66.4813 91.1141 66.6898 91.404 66.8418C91.6938 66.9938 91.9942 67.0751 92.3159 67.0857C93.0016 67.1104 93.4964 66.9408 93.7968 66.5802C94.0973 66.2197 94.2599 65.7143 94.2846 65.0675L94.3553 63.0952ZM100.215 66.2939C100.498 66.3045 100.781 66.2975 101.071 66.2692C101.361 66.2445 101.626 66.1773 101.87 66.0713C102.114 65.9652 102.311 65.7956 102.467 65.5623C102.622 65.329 102.707 65.0144 102.721 64.6115C102.746 63.9894 102.573 63.5123 102.205 63.1836C101.838 62.8513 101.219 62.6711 100.35 62.6393C99.9822 62.6251 99.65 62.6393 99.3566 62.6852C99.0597 62.7276 98.8017 62.8195 98.5826 62.9574C98.3634 63.0952 98.1938 63.2861 98.0736 63.5229C97.9534 63.7632 97.8863 64.0707 97.8721 64.4489C97.8509 65.0816 98.0312 65.5411 98.42 65.8238C98.8088 66.1066 99.4096 66.2621 100.215 66.2939Z" fill="#FEFFFE"/>
<path d="M90.7614 82.0436C91.0159 82.2522 91.1997 82.4819 91.3057 82.7258C91.4118 82.9732 91.4789 83.2206 91.5037 83.4716C91.5284 83.7225 91.5178 83.9629 91.4754 84.1891C91.433 84.4188 91.387 84.6168 91.3446 84.7864C92.1788 84.539 92.921 84.6769 93.5643 85.2035C93.8965 85.4757 94.1298 85.7973 94.2641 86.1755C94.3984 86.5537 94.4585 86.9425 94.4408 87.3383C94.4267 87.7342 94.3419 88.123 94.1934 88.4977C94.045 88.8723 93.8577 89.201 93.635 89.4732C93.2886 89.9009 92.9033 90.1978 92.4792 90.3674C92.0586 90.5371 91.7157 90.6325 91.4577 90.6608C91.5532 90.9117 91.592 91.2016 91.5779 91.5303C91.5638 91.859 91.4294 92.1735 91.182 92.481C91.0265 92.6719 90.8427 92.8133 90.6306 92.9087C90.4186 93.0041 90.1782 92.9441 89.9131 92.7285C89.7435 92.5871 89.6587 92.428 89.6622 92.2478C89.6657 92.0675 89.7152 91.9191 89.8106 91.806C89.9202 91.6716 90.0369 91.6045 90.1606 91.6116C90.2843 91.6151 90.4044 91.6328 90.5246 91.6575C90.6448 91.6822 90.7614 91.7035 90.8781 91.7176C90.9947 91.7317 91.0901 91.6893 91.1679 91.5939C91.2457 91.4984 91.2845 91.3677 91.2845 91.2016C91.2845 91.0354 91.2633 90.8728 91.2209 90.7103C91.0548 90.7173 90.8074 90.6961 90.4681 90.6431C90.1323 90.5901 89.793 90.424 89.4501 90.1447C89.1638 89.9115 88.9624 89.6287 88.8422 89.2929C88.722 88.9571 88.6655 88.6002 88.6725 88.222C88.6796 87.8438 88.7609 87.4585 88.9129 87.0697C89.0649 86.6809 89.2699 86.3239 89.535 86.0023C89.8071 85.6701 90.0863 85.4191 90.3762 85.2459C90.666 85.0727 90.8993 84.949 91.0725 84.8713C91.1113 84.7299 91.1502 84.5744 91.1891 84.4082C91.228 84.2421 91.2457 84.076 91.2421 83.9063C91.2386 83.7367 91.2032 83.5706 91.1396 83.408C91.076 83.2454 90.9664 83.1005 90.8144 82.9768C90.6731 82.8601 90.5317 82.793 90.3868 82.7718C90.2454 82.7505 90.1146 82.7647 89.9944 82.8177C89.8743 82.8672 89.7576 82.9449 89.6445 83.0404C89.5314 83.1358 89.4254 83.2489 89.3264 83.3726L87.4955 85.617C86.9548 86.2815 86.3645 86.6774 85.7248 86.8117C85.085 86.946 84.4241 86.7339 83.7419 86.1755C83.3248 85.8362 83.0173 85.4332 82.8229 84.9773C82.6285 84.5178 82.526 84.0371 82.519 83.5352C82.5119 83.0298 82.5967 82.5279 82.777 82.0295C82.9572 81.5276 83.2117 81.0752 83.544 80.6687C83.8444 80.3011 84.166 79.9972 84.5018 79.7568C84.8376 79.52 85.1734 79.3468 85.5056 79.2408C85.8379 79.1348 86.163 79.0994 86.4741 79.1454C86.7886 79.1878 87.0714 79.315 87.3294 79.5235C87.5768 79.725 87.7606 79.9583 87.8843 80.2269C88.008 80.4955 88.0823 80.7677 88.1105 81.054C88.1388 81.3367 88.1282 81.6266 88.0823 81.9199C88.0363 82.2133 87.9656 82.489 87.8773 82.7506L87.9055 82.7753C88.418 82.1497 88.8952 81.768 89.3441 81.6372C89.793 81.5064 90.2666 81.6407 90.7614 82.0436ZM90.4115 89.1586C90.6307 89.3353 90.8604 89.5015 91.1078 89.657C91.3552 89.809 91.6062 89.9185 91.8642 89.9786C92.1222 90.0387 92.3838 90.0246 92.6489 89.9327C92.9139 89.8408 93.172 89.6393 93.4264 89.3283C93.8188 88.8476 93.9708 88.3633 93.8753 87.8756C93.7799 87.3878 93.3982 86.8718 92.7231 86.3239C92.4368 86.0907 92.1646 85.9033 91.9031 85.7619C91.6415 85.617 91.38 85.5357 91.1219 85.5145C90.8639 85.4933 90.613 85.5393 90.3762 85.6594C90.1358 85.7796 89.899 85.9846 89.6587 86.278C89.2593 86.7693 89.1285 87.2464 89.2663 87.7024C89.4006 88.1619 89.7859 88.6496 90.4115 89.1586ZM87.6687 83.0722C87.6935 82.8884 87.7182 82.6975 87.7394 82.5031C87.7642 82.3087 87.7536 82.1108 87.7111 81.9129C87.6687 81.7114 87.591 81.5135 87.4743 81.3155C87.3577 81.1176 87.1774 80.9197 86.93 80.7182C86.5872 80.439 86.2585 80.2693 85.9368 80.2057C85.6187 80.1421 85.3148 80.1456 85.0249 80.2198C84.7386 80.2905 84.47 80.4178 84.2297 80.598C83.9893 80.7783 83.7772 80.9798 83.6005 81.1954C83.3213 81.5347 83.1234 81.8881 82.9997 82.2522C82.8759 82.6162 82.8194 82.9732 82.83 83.3196C82.8406 83.666 82.9148 83.9876 83.0527 84.281C83.1905 84.5744 83.3849 84.8253 83.6323 85.0268C84.166 85.4615 84.6609 85.6241 85.1168 85.5181C85.5763 85.412 86.0111 85.1081 86.4175 84.6062L87.6687 83.0722Z" fill="#FEFFFE"/>
<path d="M86.7315 91.0495C87.085 91.5338 87.3041 92.064 87.396 92.6365C87.4844 93.2091 87.4738 93.764 87.3607 94.3084C87.2476 94.8527 87.0461 95.3581 86.7563 95.8247C86.4664 96.2912 86.1236 96.6694 85.7277 96.9557C85.3319 97.242 84.8653 97.4541 84.3316 97.5813C83.7979 97.7086 83.2536 97.7474 82.7022 97.6838C82.1508 97.6237 81.6171 97.4611 81.1011 97.1996C80.585 96.938 80.1503 96.5634 79.8004 96.0791C79.461 95.6126 79.2419 95.1036 79.1429 94.5452C79.044 93.9903 79.0404 93.4424 79.1429 92.9016C79.2419 92.3609 79.4363 91.8483 79.7226 91.3677C80.0089 90.887 80.3729 90.4876 80.8077 90.173C81.246 89.8549 81.7373 89.6357 82.2816 89.512C82.8259 89.3883 83.3737 89.3636 83.9181 89.4378C84.4624 89.512 84.9855 89.6817 85.4803 89.9503C85.9751 90.2189 86.3922 90.583 86.7315 91.0495ZM85.2435 92.1276C84.731 91.4242 84.2715 90.9011 83.8615 90.5653C83.4515 90.2295 83.0733 90.0139 82.734 89.9185C82.3947 89.8266 82.0801 89.8301 81.7903 89.9326C81.504 90.0351 81.2248 90.1836 80.9561 90.378C80.6875 90.5724 80.4613 90.7915 80.274 91.0319C80.0866 91.2722 79.9842 91.5727 79.9665 91.9226C79.9488 92.276 80.0372 92.7002 80.2316 93.195C80.426 93.6898 80.7759 94.2907 81.2884 94.9941C81.7196 95.5879 82.1225 96.0579 82.4901 96.4008C82.8612 96.7436 83.2218 96.984 83.5681 97.1183C83.9145 97.2526 84.2538 97.2844 84.579 97.2137C84.9077 97.143 85.24 96.984 85.5757 96.7401C85.9115 96.4962 86.166 96.2276 86.3357 95.9413C86.5053 95.6515 86.5795 95.3228 86.5583 94.9516C86.5371 94.5805 86.424 94.1634 86.2084 93.704C85.9963 93.248 85.6747 92.7214 85.2435 92.1276Z" fill="#FEFFFE"/>
<path d="M76.8353 98.0553C76.7893 97.9422 76.7469 97.822 76.708 97.7018C76.6656 97.5781 76.6126 97.4261 76.5384 97.2459C76.3935 96.8677 76.2167 96.486 76.0117 96.0901C75.8067 95.6942 75.5629 95.3655 75.2801 95.0934C74.9973 94.8212 74.6616 94.6374 74.2763 94.5385C73.891 94.4395 73.4457 94.4854 72.9402 94.6834C72.4383 94.8778 72.0531 95.1146 71.7845 95.3903C71.5158 95.666 71.3285 95.9452 71.2225 96.2315C71.1164 96.5142 71.0599 96.7829 71.0528 97.0373C71.0458 97.2883 71.0458 97.4933 71.0528 97.6488L70.7771 97.6983C70.763 97.5605 70.7595 97.3519 70.763 97.0833C70.7701 96.8111 70.8337 96.5178 70.9539 96.1997C71.074 95.8851 71.279 95.567 71.5724 95.2489C71.8622 94.9308 72.2934 94.6622 72.866 94.4395C73.4386 94.2168 74.0006 94.1037 74.5591 94.0966C75.1175 94.0896 75.6371 94.1921 76.1248 94.3971C76.6126 94.6021 77.0438 94.9025 77.422 95.3019C77.8002 95.7013 78.1006 96.1891 78.3304 96.7723C78.5248 97.2742 78.6167 97.8008 78.599 98.3522C78.5849 98.9036 78.4718 99.4302 78.2667 99.9321C78.0617 100.434 77.7649 100.886 77.3831 101.289C77.0014 101.692 76.5419 102 76.0047 102.208C75.6866 102.332 75.319 102.41 74.909 102.435C74.499 102.463 74.089 102.41 73.6719 102.272C73.2584 102.138 72.8625 101.901 72.4878 101.558C72.1132 101.219 71.8021 100.734 71.5583 100.105L76.8353 98.0553ZM73.3997 99.667C73.4386 99.8367 73.4846 99.9887 73.5376 100.127C73.5906 100.264 73.6472 100.406 73.7037 100.554C73.8557 100.943 74.0147 101.247 74.1879 101.47C74.3611 101.692 74.5414 101.851 74.7287 101.95C74.916 102.046 75.1175 102.092 75.3331 102.081C75.5487 102.07 75.7608 102.025 75.9764 101.94C76.3652 101.788 76.655 101.586 76.8459 101.335C77.0367 101.084 77.1569 100.798 77.2029 100.476C77.2488 100.155 77.2417 99.8119 77.1852 99.4373C77.1251 99.0662 77.0367 98.688 76.913 98.3027L73.3997 99.667Z" fill="#FEFFFE"/>
<path d="M69.3522 98.5461L69.1543 98.5744C69.027 98.2952 68.875 98.0195 68.6983 97.7403C68.5216 97.461 68.3025 97.2171 68.0409 97.0015C67.7793 96.7859 67.4754 96.6234 67.1255 96.5138C66.7756 96.4042 66.3691 96.383 65.9096 96.4502C65.5208 96.5067 65.1921 96.6764 64.9235 96.9556C64.6548 97.2348 64.5594 97.6448 64.6372 98.1785C64.7043 98.638 64.8705 98.9455 65.1355 99.0975C65.4006 99.2495 65.6975 99.3591 66.0298 99.4227L67.5213 99.7054C67.7122 99.7373 67.9207 99.7867 68.1469 99.8468C68.3731 99.9069 68.5888 100.006 68.7938 100.144C68.9988 100.282 69.179 100.469 69.331 100.706C69.483 100.943 69.589 101.261 69.6491 101.664C69.6986 102.003 69.6774 102.328 69.589 102.639C69.4971 102.95 69.3522 103.229 69.1543 103.484C68.9563 103.738 68.7054 103.947 68.4014 104.113C68.0975 104.283 67.7581 104.392 67.3835 104.449C67.1184 104.488 66.8993 104.498 66.7296 104.481C66.5599 104.463 66.4115 104.442 66.2843 104.417C66.157 104.392 66.0404 104.367 65.9379 104.339C65.8354 104.311 65.7152 104.307 65.5844 104.325C65.4501 104.346 65.3617 104.406 65.3158 104.512L65.1073 104.537L64.8033 102.466L65.0048 102.438C65.1285 102.692 65.2628 102.936 65.4077 103.169C65.5526 103.403 65.7152 103.604 65.8955 103.777C66.0757 103.947 66.2843 104.074 66.5246 104.148C66.7649 104.223 67.0371 104.24 67.3411 104.194C67.9243 104.109 68.3555 103.912 68.6382 103.604C68.921 103.296 69.0306 102.925 68.9669 102.487C68.9104 102.098 68.7301 101.826 68.4297 101.664C68.1293 101.505 67.6981 101.377 67.1396 101.285L65.747 101.045C65.1497 100.935 64.6442 100.738 64.2307 100.451C63.8172 100.165 63.5698 99.7443 63.4885 99.1859C63.439 98.8572 63.4567 98.5285 63.5379 98.1927C63.6192 97.8569 63.7677 97.5565 63.9798 97.2808C64.1954 97.0086 64.4675 96.7718 64.8033 96.5739C65.1391 96.3759 65.5385 96.2416 65.998 96.1745C66.263 96.1356 66.514 96.125 66.7473 96.1497C66.9806 96.1709 67.1926 96.1992 67.3906 96.231C67.5885 96.2628 67.7687 96.2946 67.9349 96.3265C68.101 96.3583 68.2494 96.3653 68.3838 96.3441C68.5181 96.3229 68.61 96.284 68.663 96.2204C68.716 96.1568 68.7549 96.0932 68.7832 96.026L68.9846 95.9977L69.3522 98.5461Z" fill="#FEFFFE"/>
<path d="M51.3332 104.06L47.2544 102.335L47.3533 102.098L48.7565 102.692L49.0923 96.6093L45.5649 100.045L45.5224 101.324L46.2329 101.625L46.1339 101.862L42.7655 100.437L42.8645 100.2L43.9991 100.681L44.2536 94.6017L39.9203 98.9562L41.5108 99.6278L41.4118 99.8646L38.6514 98.6982L38.7503 98.4614L39.6481 98.8396L45.883 92.5376L45.5896 99.6561L50.7606 94.5982L50.2799 103.335L51.4321 103.823L51.3332 104.06Z" fill="#FEFFFE"/>
<path d="M38.09 93.63C38.1677 93.5346 38.2525 93.4427 38.3409 93.3473C38.4293 93.2518 38.5353 93.1317 38.6625 92.9797C38.9241 92.6686 39.175 92.3329 39.4225 91.9617C39.6699 91.5942 39.8431 91.2195 39.9456 90.8413C40.0481 90.4631 40.0481 90.0814 39.9491 89.6926C39.8501 89.3073 39.5957 88.9397 39.1821 88.5898C38.7686 88.2434 38.3798 88.0172 38.0087 87.9147C37.6375 87.8122 37.3018 87.784 37.0013 87.8264C36.7009 87.8688 36.4393 87.9501 36.2131 88.0632C35.9869 88.1763 35.8102 88.2753 35.6759 88.3565L35.4992 88.1374C35.6158 88.0561 35.7925 87.9536 36.0329 87.8299C36.2732 87.7027 36.563 87.6178 36.8988 87.5719C37.2346 87.5259 37.6093 87.5542 38.0299 87.6567C38.4469 87.7592 38.8923 88.0102 39.3588 88.4025C39.8289 88.7984 40.2001 89.2366 40.4722 89.7209C40.7444 90.2051 40.907 90.7105 40.9635 91.2372C41.0165 91.7638 40.96 92.2869 40.7938 92.81C40.6277 93.3331 40.3414 93.835 39.9385 94.3122C39.5921 94.7257 39.1715 95.058 38.6802 95.3089C38.1889 95.5599 37.6729 95.7154 37.1356 95.7755C36.5984 95.8356 36.0576 95.7967 35.5204 95.6553C34.9831 95.5139 34.4918 95.2594 34.05 94.8883C33.7885 94.6692 33.5446 94.3829 33.3254 94.04C33.1028 93.6936 32.9543 93.3084 32.873 92.8807C32.7917 92.453 32.8129 91.9936 32.9296 91.4987C33.0462 91.0039 33.3254 90.502 33.7567 89.986L38.09 93.63ZM35.0255 91.3892C34.8948 91.5058 34.7852 91.6189 34.6898 91.732C34.5943 91.8451 34.4954 91.9617 34.3929 92.0819C34.1242 92.4 33.9334 92.6898 33.8203 92.9479C33.7072 93.2059 33.6542 93.4392 33.6577 93.6548C33.6648 93.8668 33.7213 94.0648 33.8344 94.245C33.9475 94.4253 34.0924 94.5914 34.2692 94.7399C34.5873 95.0085 34.9054 95.1675 35.2164 95.2135C35.531 95.2594 35.8385 95.2276 36.1424 95.1145C36.4464 95.0014 36.7468 94.8282 37.0437 94.5985C37.3406 94.3687 37.6305 94.1072 37.9097 93.8138L35.0255 91.3892Z" fill="#FEFFFE"/>
<path d="M36.2337 86.1898L35.343 85.0906L25.4535 93.121L26.3441 94.2202L26.1462 94.3828L24.2588 92.0571L34.3427 83.8641L33.452 82.7649L33.65 82.6023L36.4316 86.0272L36.2337 86.1898Z" fill="#FEFFFE"/>
<path d="M33.2369 82.4607L32.5052 81.2484L21.5942 87.819L22.3258 89.0278L22.1032 89.1621L20.5586 86.5961L31.6923 79.8946L30.9642 78.6823L31.1833 78.548L33.4595 82.3264L33.2369 82.4607Z" fill="#FEFFFE"/>
</g>
<circle cx="62" cy="62" r="59.4" stroke="#FEFFFE" stroke-width="1.2"/>
<defs>
<clipPath id="clip0_826_204">
<rect width="84.9872" height="82.7534" fill="white" transform="translate(20.5586 104.537) rotate(-90)"/>
</clipPath>
</defs>
</svg>
